# xmcd
#
# Track frame offsets: 
#        150
#        13511
#        25572
#        35203
#        48488
#        60304
#        72440
#        84612
#        98902
#        112441
#        132168
#        150166
#        165604
#        182251
#        201596
#        215919
#        226968
#        240733
#        254457
#        264826
#
# Disc length: 3653 seconds
#
# Revision: 0
# Processed by: cddbd v1.5.2PL0 Copyright (c) Steve Scherf et al.
# Submitted via: ExactAudioCopy v0.99pb5
#
DISCID=150e4314
DTITLE=Various Artist - 100 Country Hits [CD1]
DYEAR=2009
DGENRE=Country
TTITLE0=Kenny Rogers - Ruby, don't take your love to town
TTITLE1=Dolly Parton - Jolene
TTITLE2=Waylon Jennings - Theme from the Dukes of Hazzard (Good ol' bo
TTITLE2=ys)
TTITLE3=Lynn Anderson - Rose garden
TTITLE4=Johnny Cash - Ring of fire
TTITLE5=Tammy Wynette - Stand by your man
TTITLE6=Charlie Rich - The most beautiful girl
TTITLE7=John Denver - Take me home
TTITLE8=Brooks and Dunn - Brand new man
TTITLE9=The mavericks - Dance the night away
TTITLE10=Trisha Yearwood - How do I live
TTITLE11=Billy Ray Cyrus - Achy breaky heart
TTITLE12=Reba McEntire - How was I to know
TTITLE13=Loggins and Messina - Danny's song
TTITLE14=Glen Campbell - Rhinestone cowboy
TTITLE15=Roger Miller - King of the road
TTITLE16=B.J. Thomas - Raindrops keep falling on my head
TTITLE17=Bobby Bare - Marie Lavaux
TTITLE18=Elvis Presley - The fool
TTITLE19=Chet Atkins - Yakety axe
EXTD=
EXTT0=
EXTT1=
EXTT2=
EXTT3=
EXTT4=
EXTT5=
EXTT6=
EXTT7=
EXTT8=
EXTT9=
EXTT10=
EXTT11=
EXTT12=
EXTT13=
EXTT14=
EXTT15=
EXTT16=
EXTT17=
EXTT18=
EXTT19=
PLAYORDER=
